<svg xmlns="http://www.w3.org/2000/svg" width="288" height="288" viewBox="0 0 288 288" role="img" aria-labelledby="file-pdf-title">
  <title id="file-pdf-title">PDF</title>
  <desc>Editable vector illustration reconstructed from the reference silhouette, with shared boundaries and clipped gradient highlights.</desc>
  <defs>
    <linearGradient id="file-pdf-blue" x1="0" y1="0" x2=".3" y2="1">
      <stop offset="0.0" stop-color="#0bc5ff" />
      <stop offset="0.5" stop-color="#0099ff" />
      <stop offset="1.0" stop-color="#0078ed" />
    </linearGradient>
    <linearGradient id="file-pdf-silver-edge" x1="0" y1="0" x2=".3" y2="1">
      <stop offset="0.0" stop-color="#ffffff" />
      <stop offset="0.5" stop-color="#dce5ef" />
      <stop offset="1.0" stop-color="#9caec2" />
    </linearGradient>
    <linearGradient id="file-pdf-hotred" x1="0" y1="0" x2=".3" y2="1">
      <stop offset="0.0" stop-color="#ff6247" />
      <stop offset="0.5" stop-color="#ff3828" />
      <stop offset="1.0" stop-color="#ef211c" />
    </linearGradient>
    <linearGradient id="file-pdf-red-edge" x1="0" y1="0" x2=".3" y2="1">
      <stop offset="0.0" stop-color="#ffac8c" />
      <stop offset="0.5" stop-color="#ff5946" />
      <stop offset="1.0" stop-color="#dc231e" />
    </linearGradient>
    <linearGradient id="file-pdf-sheet" x1="0" y1="0" x2=".3" y2="1">
      <stop offset="0.0" stop-color="#ffffff" />
      <stop offset="0.5" stop-color="#fcfcfe" />
      <stop offset="1.0" stop-color="#edf0f5" />
    </linearGradient>
    <path id="file-pdf-shape1" d="M92 64 H169 L212 106 V208 Q212 224 196 224 H92 Q76 224 76 208 V80 Q76 64 92 64 Z" />
    <clipPath id="file-pdf-shape1-clip">
      <use href="#file-pdf-shape1" />
    </clipPath>
    <rect id="file-pdf-shape2" x="91" y="123" width="106" height="65" rx="11" />
    <clipPath id="file-pdf-shape2-clip">
      <use href="#file-pdf-shape2" />
    </clipPath>
  </defs>
  <g stroke-linecap="round" stroke-linejoin="round">
    <use href="#file-pdf-shape1" fill="url(#file-pdf-sheet)" />
    <use href="#file-pdf-shape1" fill="none" stroke="url(#file-pdf-silver-edge)" stroke-width="5" clip-path="url(#file-pdf-shape1-clip)" />
    <use href="#file-pdf-shape1" fill="none" stroke="#050b1d" stroke-width="7" />
    <path d="M169 68 L208 107 H179 Q169 107 169 97 Z" fill="url(#file-pdf-blue)" stroke="none" stroke-width="0" />
    <use href="#file-pdf-shape2" fill="url(#file-pdf-hotred)" />
    <use href="#file-pdf-shape2" fill="none" stroke="url(#file-pdf-red-edge)" stroke-width="13.0" clip-path="url(#file-pdf-shape2-clip)" />
    <path d="M0 0 H12 Q22 0 22 11 Q22 22 11 22 H7 V34 H0 Z M7 6 V16 H11 Q15 16 15 11 Q15 6 11 6 Z" fill="#fffdf6" stroke="none" stroke-width="0" transform="translate(107 139)" fill-rule="evenodd" />
    <path d="M0 0 H10 Q26 0 26 17 Q26 34 10 34 H0 Z M7 6 V28 H10 Q19 28 19 17 Q19 6 10 6 Z" fill="#fffdf6" stroke="none" stroke-width="0" transform="translate(133 139)" fill-rule="evenodd" />
    <path d="M0 0 H22 V6 H7 V14 H20 V20 H7 V34 H0 Z" fill="#fffdf6" stroke="none" stroke-width="0" transform="translate(164 139)" fill-rule="evenodd" />
  </g>
</svg>
