<svg xmlns="http://www.w3.org/2000/svg" width="288" height="288" viewBox="0 0 288 288" role="img" aria-labelledby="library-title">
  <title id="library-title">ライブラリ</title>
  <desc>A front-facing wooden bookcase with two shelves, each holding five closely packed colorful books. Editable vector reconstruction of the imagegen reference.</desc>
  <defs>
    <linearGradient id="library-wood" x1="0" y1="0" x2=".3" y2="1">
      <stop offset="0" stop-color="#ffd070" />
      <stop offset="0.5" stop-color="#dc922d" />
      <stop offset="1" stop-color="#af611e" />
    </linearGradient>
    <linearGradient id="library-upright" x1="0" y1="0" x2="1" y2=".1">
      <stop offset="0" stop-color="#ffc963" />
      <stop offset="0.5" stop-color="#e59932" />
      <stop offset="1" stop-color="#bb7024" />
    </linearGradient>
    <linearGradient id="library-recess" x1="0" y1="0" x2=".3" y2="1">
      <stop offset="0" stop-color="#301d18" />
      <stop offset="1" stop-color="#573122" />
    </linearGradient>
    <rect id="library-book-1" x="72" y="75" width="27" height="62" rx="3" />
    <clipPath id="library-book-1-clip"><use href="#library-book-1" /></clipPath>
    <rect id="library-book-2" x="102" y="75" width="27" height="62" rx="3" />
    <clipPath id="library-book-2-clip"><use href="#library-book-2" /></clipPath>
    <rect id="library-book-3" x="132" y="75" width="27" height="62" rx="3" />
    <clipPath id="library-book-3-clip"><use href="#library-book-3" /></clipPath>
    <rect id="library-book-4" x="162" y="75" width="27" height="62" rx="3" />
    <clipPath id="library-book-4-clip"><use href="#library-book-4" /></clipPath>
    <rect id="library-book-5" x="192" y="75" width="25" height="62" rx="3" />
    <clipPath id="library-book-5-clip"><use href="#library-book-5" /></clipPath>
    <rect id="library-book-6" x="72" y="158" width="27" height="60" rx="3" />
    <clipPath id="library-book-6-clip"><use href="#library-book-6" /></clipPath>
    <rect id="library-book-7" x="102" y="158" width="27" height="60" rx="3" />
    <clipPath id="library-book-7-clip"><use href="#library-book-7" /></clipPath>
    <rect id="library-book-8" x="132" y="160" width="23" height="58" rx="3" />
    <clipPath id="library-book-8-clip"><use href="#library-book-8" /></clipPath>
    <rect id="library-book-9" x="166" y="158" width="25" height="60" rx="3" />
    <clipPath id="library-book-9-clip"><use href="#library-book-9" /></clipPath>
    <rect id="library-book-10" x="194" y="158" width="23" height="60" rx="3" />
    <clipPath id="library-book-10-clip"><use href="#library-book-10" /></clipPath>
  </defs>
  <!-- Exterior width: 7 units after fills, overlapping strokes and placement transforms. -->
  <g id="library-exterior-width" fill="none" stroke="#050b1d" stroke-linecap="round" stroke-linejoin="round">
    <g stroke-linecap="round" stroke-linejoin="round"><g fill="none" stroke="#050b1d" stroke-width="9.000000">
      <rect x="58" y="229" width="15" height="14" rx="3"/>
      <rect x="215" y="229" width="15" height="14" rx="3"/>
    </g></g>
    <g stroke-linecap="round" stroke-linejoin="round"><g fill="none" stroke="#050b1d" stroke-width="11.000000">
      <path d="M57 59 H69 V228 H57 Z"/>
      <path d="M219 59 H231 V228 H219 Z"/>
    </g></g>
    <g stroke-linecap="round" stroke-linejoin="round"><g fill="none" stroke="#050b1d" stroke-width="8.000000">
      <rect x="52" y="48" width="184" height="14" rx="5"/>
      <rect x="52" y="224" width="184" height="12" rx="4"/>
    </g></g>
  </g>
  <g stroke-linecap="round" stroke-linejoin="round">
    <g id="library-feet" fill="url(#library-wood)" stroke="#050b1d" stroke-width="5">
      <rect x="58" y="229" width="15" height="14" rx="3" />
      <rect x="215" y="229" width="15" height="14" rx="3" />
    </g>
    <rect x="61" y="57" width="166" height="174" rx="3" fill="url(#library-recess)" stroke="#050b1d" stroke-width="5" />
    <path d="M69 65 H219" fill="none" stroke="#b3712a" stroke-width="4" />
    <g id="library-book-1-paint">
      <use href="#library-book-1" fill="#1788ed" />
      <g clip-path="url(#library-book-1-clip)">
        <path id="library-book-1-highlight" d="M73.2 133 V79 Q73.2 76.2 76 76.2 H97 L93 80 H78 V128 Z" fill="#83d9ff" />
        <path id="library-book-1-shadow" d="M94 80 L97.8 76.2 V134 Q97.8 135.8 96 135.8 H73.2 L78 131 H94 Z" fill="#0753b5" />
        <rect x="72" y="88" width="27" height="3" fill="#ffe087" />
        <rect x="72" y="125" width="27" height="3" fill="#ffe087" />
      </g>
      <use href="#library-book-1" fill="none" stroke="#050b1d" stroke-width="2.4" />
    </g>
    <g id="library-book-2-paint">
      <use href="#library-book-2" fill="#f34b50" />
      <g clip-path="url(#library-book-2-clip)">
        <path id="library-book-2-highlight" d="M103.2 133 V79 Q103.2 76.2 106 76.2 H127 L123 80 H108 V128 Z" fill="#ffac98" />
        <path id="library-book-2-shadow" d="M124 80 L127.8 76.2 V134 Q127.8 135.8 126 135.8 H103.2 L108 131 H124 Z" fill="#b92338" />
        <rect x="102" y="88" width="27" height="3" fill="#ffe087" />
        <path d="M102 93 H129" fill="none" stroke="#ffd548" stroke-width="1.3" />
        <rect x="102" y="125" width="27" height="3" fill="#ffe087" />
        <path d="M102 130 H129" fill="none" stroke="#ffd548" stroke-width="1.3" />
      </g>
      <use href="#library-book-2" fill="none" stroke="#050b1d" stroke-width="2.4" />
    </g>
    <g id="library-book-3-paint">
      <use href="#library-book-3" fill="#32bd62" />
      <g clip-path="url(#library-book-3-clip)">
        <path id="library-book-3-highlight" d="M133.2 133 V79 Q133.2 76.2 136 76.2 H157 L153 80 H138 V128 Z" fill="#a1ed91" />
        <path id="library-book-3-shadow" d="M154 80 L157.8 76.2 V134 Q157.8 135.8 156 135.8 H133.2 L138 131 H154 Z" fill="#128444" />
        <rect x="132" y="88" width="27" height="3" fill="#ffe087" />
        <rect x="132" y="125" width="27" height="3" fill="#ffe087" />
      </g>
      <use href="#library-book-3" fill="none" stroke="#050b1d" stroke-width="2.4" />
    </g>
    <g id="library-book-4-paint">
      <use href="#library-book-4" fill="#f5e8c6" />
      <g clip-path="url(#library-book-4-clip)">
        <path id="library-book-4-highlight" d="M163.2 133 V79 Q163.2 76.2 166 76.2 H187 L183 80 H168 V128 Z" fill="#fffdf0" />
        <path id="library-book-4-shadow" d="M184 80 L187.8 76.2 V134 Q187.8 135.8 186 135.8 H163.2 L168 131 H184 Z" fill="#c9ad77" />
        <rect x="162" y="88" width="27" height="3" fill="#ffe087" />
        <rect x="162" y="125" width="27" height="3" fill="#ffe087" />
      </g>
      <use href="#library-book-4" fill="none" stroke="#050b1d" stroke-width="2.4" />
    </g>
    <g id="library-book-5-paint">
      <use href="#library-book-5" fill="#ffda37" />
      <g clip-path="url(#library-book-5-clip)">
        <path id="library-book-5-highlight" d="M193.2 133 V79 Q193.2 76.2 196 76.2 H215 L211 80 H198 V128 Z" fill="#fff59a" />
        <path id="library-book-5-shadow" d="M212 80 L215.8 76.2 V134 Q215.8 135.8 214 135.8 H193.2 L198 131 H212 Z" fill="#dfa522" />
        <rect x="192" y="88" width="25" height="3" fill="#ffe087" />
        <rect x="192" y="125" width="25" height="3" fill="#ffe087" />
      </g>
      <use href="#library-book-5" fill="none" stroke="#050b1d" stroke-width="2.4" />
    </g>
    <g id="library-book-6-paint">
      <use href="#library-book-6" fill="#32bd62" />
      <g clip-path="url(#library-book-6-clip)">
        <path id="library-book-6-highlight" d="M73.2 214 V162 Q73.2 159.2 76 159.2 H97 L93 163 H78 V209 Z" fill="#a1ed91" />
        <path id="library-book-6-shadow" d="M94 163 L97.8 159.2 V215 Q97.8 216.8 96 216.8 H73.2 L78 212 H94 Z" fill="#128444" />
        <rect x="72" y="171" width="27" height="3" fill="#ffe087" />
        <rect x="72" y="206" width="27" height="3" fill="#ffe087" />
      </g>
      <use href="#library-book-6" fill="none" stroke="#050b1d" stroke-width="2.4" />
    </g>
    <g id="library-book-7-paint">
      <use href="#library-book-7" fill="#f5e8c6" />
      <g clip-path="url(#library-book-7-clip)">
        <path id="library-book-7-highlight" d="M103.2 214 V162 Q103.2 159.2 106 159.2 H127 L123 163 H108 V209 Z" fill="#fffdf0" />
        <path id="library-book-7-shadow" d="M124 163 L127.8 159.2 V215 Q127.8 216.8 126 216.8 H103.2 L108 212 H124 Z" fill="#c9ad77" />
        <rect x="102" y="171" width="27" height="3" fill="#ffe087" />
        <rect x="102" y="206" width="27" height="3" fill="#ffe087" />
      </g>
      <use href="#library-book-7" fill="none" stroke="#050b1d" stroke-width="2.4" />
    </g>
    <g id="library-book-8-paint" transform="rotate(7 132 218)">
      <use href="#library-book-8" fill="#1788ed" />
      <g clip-path="url(#library-book-8-clip)">
        <path id="library-book-8-highlight" d="M133.2 214 V164 Q133.2 161.2 136 161.2 H153 L149 165 H138 V209 Z" fill="#83d9ff" />
        <path id="library-book-8-shadow" d="M150 165 L153.8 161.2 V215 Q153.8 216.8 152 216.8 H133.2 L138 212 H150 Z" fill="#0753b5" />
        <rect x="132" y="173" width="23" height="3" fill="#ffe087" />
        <rect x="132" y="206" width="23" height="3" fill="#ffe087" />
      </g>
      <use href="#library-book-8" fill="none" stroke="#050b1d" stroke-width="2.4" />
    </g>
    <g id="library-book-9-paint">
      <use href="#library-book-9" fill="#f34b50" />
      <g clip-path="url(#library-book-9-clip)">
        <path id="library-book-9-highlight" d="M167.2 214 V162 Q167.2 159.2 170 159.2 H189 L185 163 H172 V209 Z" fill="#ffac98" />
        <path id="library-book-9-shadow" d="M186 163 L189.8 159.2 V215 Q189.8 216.8 188 216.8 H167.2 L172 212 H186 Z" fill="#b92338" />
        <rect x="166" y="171" width="25" height="3" fill="#ffe087" />
        <path d="M166 176 H191" fill="none" stroke="#ffd548" stroke-width="1.3" />
        <rect x="166" y="206" width="25" height="3" fill="#ffe087" />
        <path d="M166 211 H191" fill="none" stroke="#ffd548" stroke-width="1.3" />
      </g>
      <use href="#library-book-9" fill="none" stroke="#050b1d" stroke-width="2.4" />
    </g>
    <g id="library-book-10-paint">
      <use href="#library-book-10" fill="#ffda37" />
      <g clip-path="url(#library-book-10-clip)">
        <path id="library-book-10-highlight" d="M195.2 214 V162 Q195.2 159.2 198 159.2 H215 L211 163 H200 V209 Z" fill="#fff59a" />
        <path id="library-book-10-shadow" d="M212 163 L215.8 159.2 V215 Q215.8 216.8 214 216.8 H195.2 L200 212 H212 Z" fill="#dfa522" />
        <rect x="194" y="171" width="23" height="3" fill="#ffe087" />
        <rect x="194" y="206" width="23" height="3" fill="#ffe087" />
      </g>
      <use href="#library-book-10" fill="none" stroke="#050b1d" stroke-width="2.4" />
    </g>
    <g id="library-shelves" fill="url(#library-wood)" stroke="#050b1d" stroke-width="2.5">
      <path d="M68 139 H220 V147 H68 Z" />
      <path d="M68 219 H220 V228 H68 Z" />
    </g>
    <path d="M70 141 H218 M70 221 H218" fill="none" stroke="#ffe095" stroke-width="1.5" />
    <g id="library-uprights" fill="url(#library-upright)" stroke="#050b1d" stroke-width="3">
      <path d="M57 59 H69 V228 H57 Z" />
      <path d="M219 59 H231 V228 H219 Z" />
    </g>
    <path d="M60 64 V224 M222 64 V224" fill="none" stroke="#ffda7d" stroke-width="2" />
    <g id="library-frame-caps" fill="url(#library-wood)" stroke="#050b1d" stroke-width="6">
      <rect x="52" y="48" width="184" height="14" rx="5" />
      <rect x="52" y="224" width="184" height="12" rx="4" />
    </g>
    <path d="M57 56 Q57 52 62 52 H226 Q231 52 231 56 M57 230 Q57 228 61 228 H228" fill="none" stroke="#ffe6a1" stroke-width="2" />
  </g>
</svg>
